<?xml version="1.0" encoding="UTF-8"?>
<!DOCTYPE svg PUBLIC "-//W3C//DTD SVG 1.1//EN" "http://www.w3.org/Graphics/SVG/1.1/DTD/svg11.dtd">
<!-- Creator: CorelDRAW 2021 (64 Bit) -->
<svg xmlns="http://www.w3.org/2000/svg" xml:space="preserve" width="203.058mm" height="42.7486mm" version="1.1" style="shape-rendering:geometricPrecision; text-rendering:geometricPrecision; image-rendering:optimizeQuality; fill-rule:evenodd; clip-rule:evenodd"
viewBox="0 0 20325.26 4278.95"
 xmlns:xlink="http://www.w3.org/1999/xlink"
 xmlns:xodm="http://www.corel.com/coreldraw/odm/2003">
 <defs>
  <style type="text/css">
   <![CDATA[
    .fil0 {fill:#FEFEFE;fill-rule:nonzero}
   ]]>
  </style>
 </defs>
 <g id="Camada_x0020_1">
  <metadata id="CorelCorpID_0Corel-Layer"/>
  <g id="_2209255146000">
   <path class="fil0" d="M4278.95 2139.47c0,1181.6 -957.88,2139.47 -2139.47,2139.47 -231.31,0 -455.27,-37.28 -663.89,-105.22l-0.03 -0.01 0 -733.25 0 -144.35 0 -764.77 0 -76.96 0 -1059.74c0,-82.23 66.67,-148.88 148.89,-148.88l708.44 0c256.32,0 459.68,54.1 609.98,162.33 150.17,107.96 225.31,293.84 225.31,557.63 0,263.86 -75.13,448.98 -225.31,555.03 -150.3,106.31 -353.66,159.48 -609.98,159.48l-8.32 0 -164.49 0c-128.94,0 -233.52,104.52 -233.52,233.46 0,129 104.58,233.53 233.52,233.53l164.49 0 21.04 0 47.65 0c417.72,0 745.58,-99.8 983.78,-299.41 238.1,-199.6 357.1,-493.68 357.1,-882.1 0,-380.87 -119.98,-675 -359.86,-882.05 -239.97,-206.78 -567.04,-310.48 -981.02,-310.48l-1329.36 0c-82.22,0 -148.88,66.67 -148.88,148.89l0 2971.85 -0.02 -0.01c-552.86,-386.6 -914.98,-1028.23 -914.98,-1754.45 0,-1181.61 957.88,-2139.47 2139.47,-2139.47 1181.6,0 2139.47,957.87 2139.47,2139.47zm-3114.82 1904.54c-4.14,-2.09 -8.16,-4.15 -11.98,-6.18l-2.32 -1.23 14.3 7.41z"/>
   <path class="fil0" d="M20193.98 1037.52l-31.07 0c-54.9,0 -103.99,34.17 -123,85.67l-124.91 337.8 -133.48 390.19 1.73 0 -27.43 75.24 0 0.04 0 0 -330.97 907.7c-5.52,15.07 -26.84,15.07 -32.35,0l-323.37 -887.02 0 0 0 -0.05 -35 -95.91 2.55 0 -126.82 -374.83 -131.57 -345.58c-21.37,-56.13 -75.19,-93.26 -135.24,-93.26 -101.25,0 -171.15,101.19 -135.41,195.87l703.92 1863.9c30.97,81.97 109.44,136.23 197.08,136.23 87.69,0 166.18,-54.26 197.15,-136.23l710.87 -1882.27c32.39,-85.77 -30.97,-177.5 -122.7,-177.5z"/>
   <path class="fil0" d="M8890.39 1037.52l1260.17 0c74.84,0 135.55,60.72 135.55,135.55 0,74.89 -60.71,135.55 -135.55,135.55l-938.57 0c-31.91,0 -57.82,25.89 -57.82,57.81l0 581.32c0,31.9 25.9,57.76 57.82,57.76l653.25 0c73.94,0 133.97,59.97 133.97,133.97 0,73.99 -60.03,133.97 -133.97,133.97l-653.25 0c-31.91,0 -57.82,25.84 -57.82,57.75l0 584.53c0,31.9 25.9,57.76 57.82,57.76l940.15 0c73.95,0 133.97,60.03 133.97,133.97 0,74.01 -60.02,133.97 -133.97,133.97l-1261.76 0c-31.9,0 -57.77,-25.85 -57.77,-57.76l0 -2088.37c0,-31.9 25.86,-57.76 57.77,-57.76z"/>
   <path class="fil0" d="M10886.66 3255.63c-78.02,-13.98 -146.96,-31.17 -206.78,-51.5 -56.13,-19.11 -94.34,-70.9 -94.34,-130.18l0 0c0,-92.12 89.61,-156.66 177.4,-128.59 150.36,48.15 308.8,72.12 475.27,72.12 327.85,0 491.85,-110.24 491.85,-330.96 0,-75.73 -17.92,-136.58 -53.62,-182.82 -35.78,-46.22 -87.24,-86.79 -154.5,-121.41 -67.25,-34.76 -176.55,-82.52 -327.9,-143.47 -208.12,-84.05 -358.43,-176.61 -450.85,-277.45 -92.51,-100.88 -138.74,-228.06 -138.74,-381.47 0,-115.65 31.51,-218.17 94.58,-307.43 63.07,-89.41 151.34,-158.78 264.84,-208.16 113.53,-49.28 243.86,-74.09 390.97,-74.09 119.84,0 228.07,9.49 324.71,28.4 67.06,13.09 133.08,31.81 198.07,56.03 51.66,19.25 85.72,68.98 85.72,124.08 0,88.07 -85.17,150.75 -169.32,124.81 -127.51,-39.35 -256.07,-59.04 -385.56,-59.04 -151.35,0 -266.96,27.43 -346.86,82.08 -79.86,54.64 -119.84,132.3 -119.84,233.32 0,69.23 17.44,127.62 52.09,174.94 34.66,47.31 86.16,89.41 154.46,126.09 68.29,36.82 169.7,82.51 304.32,137.11 149.17,61.01 266.85,118.81 353.11,173.47 86.17,54.6 151.85,121.41 197,200.19 45.2,78.93 67.84,177.15 67.84,294.82 0,191.22 -68.39,339.52 -204.97,444.53 -136.68,105.12 -338.44,157.71 -605.35,157.71 -126.14,0 -250.66,-11.08 -373.61,-33.13z"/>
   <path class="fil0" d="M12869.57 1308.63l-490 0c-74.89,0 -135.59,-60.71 -135.59,-135.55 0,-74.89 60.7,-135.54 135.59,-135.54l1421.91 0c74.89,0 135.55,60.65 135.55,135.54 0,74.84 -60.66,135.55 -135.55,135.55l-489.98 0c-32.4,0 -58.65,26.24 -58.65,58.59l0 1711.83c0,89.71 -72.68,162.39 -162.34,162.39 -89.66,0 -162.37,-72.68 -162.37,-162.39l0 -1711.83c0,-32.35 -26.26,-58.59 -58.59,-58.59z"/>
   <path class="fil0" d="M16338.46 1308.63l-481.32 0c-74.83,0 -135.54,-60.71 -135.54,-135.55 0,-74.89 60.71,-135.54 135.54,-135.54l1421.98 0c74.83,0 135.54,60.65 135.54,135.54 0,74.84 -60.71,135.55 -135.54,135.55l-481.34 0c-37.17,0 -67.29,30.13 -67.29,67.31l0 1703.1c0,89.71 -72.67,162.39 -162.39,162.39 -89.66,0 -162.33,-72.68 -162.33,-162.39l0 -1703.1c0,-37.19 -30.13,-67.31 -67.31,-67.31z"/>
   <path class="fil0" d="M17892.26 1037.52l0 0c89.66,0 162.33,72.68 162.33,162.34l0 1879.21c0,89.67 -72.67,162.34 -162.33,162.34l0 0c-89.66,0 -162.33,-72.67 -162.33,-162.34l0 -1879.21c0,-89.66 72.67,-162.34 162.33,-162.34z"/>
   <path class="fil0" d="M6315.06 1215.64c-137.71,-118.66 -325.35,-178.13 -562.87,-178.13l-762.65 0c-47.18,0 -85.43,38.26 -85.43,85.41l0 1957.71c0,88.75 72.03,160.8 160.8,160.8 88.82,0 160.81,-72.05 160.81,-160.8l0 -512.83 0 -82.82 0 -438.8 0 -44.15 0 -607.96c0,-47.22 38.26,-85.43 85.41,-85.43l406.44 0c147.07,0 263.71,31.03 349.97,93.11 86.15,61.94 129.29,168.58 129.29,319.94 0,151.34 -43.14,257.6 -129.29,318.44 -86.26,60.97 -202.9,91.49 -349.97,91.49l-4.77 0 -94.38 0c-73.95,0 -133.92,59.97 -133.92,133.97 0,73.95 59.97,133.97 133.92,133.97l94.38 0 12.06 0 27.33 0c239.68,0 427.81,-57.26 564.44,-171.77 136.58,-114.53 204.88,-283.26 204.88,-506.09 0,-218.52 -68.84,-387.24 -206.45,-506.04z"/>
   <path class="fil0" d="M8333.81 3035.44c-1.07,-3.5 -2.8,-7.35 -4.71,-11.43 -0.49,-1.03 -0.7,-1.87 -1.23,-2.94l-1.67 -3.06 -3.85 -7.09 -320.52 -586.49c-21.52,-39.59 -2.11,-88.33 40.17,-103.9 118.23,-43.41 212.56,-111.22 283.07,-203.13 86.15,-112.46 129.18,-249.58 129.18,-411.4 0,-218.56 -63.07,-384.69 -189.16,-498.23 -126.09,-113.54 -306.88,-170.25 -542.28,-170.25l-812.63 0c-40.53,0 -73.31,32.84 -73.31,73.31l0 1969.81c0,88.77 71.98,160.8 160.8,160.8l0 0c88.76,0 160.79,-72.03 160.79,-160.8l0 -700.68 0 -154.64 0 -198.61 0 -191.58 0 -453.16c0,-40.52 32.79,-73.32 73.31,-73.32l437.41 0c145,0 258.01,30.49 338.93,91.45 80.9,60.99 121.43,162.96 121.43,305.9 0,130.36 -41.56,228.59 -124.52,294.81 -83.11,66.07 -149.67,99.2 -290.5,99.2l-1.71 0 0 0.25c-79.18,2.76 -142.54,67.64 -142.54,147.46l0 13.68c0,25.11 5.06,47.17 11.71,65.44 10.09,27.56 23.58,46.02 29.25,53.07 0,0 0,0.04 0,0.04l426.33 788.75c0,0 0.04,0 0.04,0 27.39,51.36 81.44,86.36 143.73,86.36 89.96,0 162.88,-72.92 162.88,-162.87 0,-19.31 -3.54,-37.77 -9.76,-54.95 -0.19,-0.58 -0.39,-1.23 -0.64,-1.81z"/>
   <path class="fil0" d="M15233.58 2419.86l-358.39 -982.95c-5.46,-15.11 -26.83,-15.11 -32.35,0l-358.37 982.95 749.12 0zm-374.54 -1382.34l0 0c87.64,0 166.12,54.26 197.09,136.23l703.97 1863.91c35.74,94.68 -34.22,195.86 -135.45,195.86 -60.07,0 -113.89,-37.07 -135.25,-93.2l-172.61 -453.4 -918.5 0 -170.44 460.98c-19.06,51.46 -68.14,85.62 -123.05,85.62l-31.06 0c-91.69,0 -155.09,-91.68 -122.7,-177.44l710.86 -1882.33c30.97,-81.97 109.5,-136.23 197.14,-136.23z"/>
  </g>
 </g>
</svg>
