<?xml version="1.0" encoding="UTF-8"?>
<!DOCTYPE svg PUBLIC "-//W3C//DTD SVG 1.1//EN" "http://www.w3.org/Graphics/SVG/1.1/DTD/svg11.dtd">
<!-- Creator: CorelDRAW 2021 (64 Bit) -->
<svg xmlns="http://www.w3.org/2000/svg" xml:space="preserve" width="271.623mm" height="167.78mm" version="1.1" style="shape-rendering:geometricPrecision; text-rendering:geometricPrecision; image-rendering:optimizeQuality; fill-rule:evenodd; clip-rule:evenodd"
viewBox="0 0 27278.58 16849.82"
 xmlns:xlink="http://www.w3.org/1999/xlink"
 xmlns:xodm="http://www.corel.com/coreldraw/odm/2003">
 <defs>
  <style type="text/css">
   <![CDATA[
    .fil0 {fill:none;fill-rule:nonzero}
    .fil2 {fill:#FEFEFE;fill-rule:nonzero}
    .fil1 {fill:#F26B35;fill-rule:nonzero}
    .fil3 {fill:#514F4E;fill-rule:nonzero}
   ]]>
  </style>
 </defs>
 <g id="Camada_x0020_1">
  <metadata id="CorelCorpID_0Corel-Layer"/>
  <line class="fil0" x1="27278.54" y1="14660" x2="27278.58" y2= "14659.9" />
  <line class="fil0" x1="26085.4" y1="14695.98" x2="26085.36" y2= "14695.94" />
  <path class="fil1" d="M18879.27 5481.82c0,3027.52 -2454.29,5481.82 -5481.82,5481.82 -592.65,0 -1166.49,-95.52 -1701.11,-269.51 -0.53,-0.28 -566.69,-210.06 -828.61,-348.26 -202.61,-106.93 -607.67,-368.67 -607.67,-368.67 -1416.66,-990.56 -2344.39,-2634.6 -2344.39,-4495.38 0,-3027.53 2454.29,-5481.82 5481.78,-5481.82 3027.53,0 5481.82,2454.29 5481.82,5481.82z"/>
  <path class="fil2" d="M16561.27 2776.6c-614.94,-529.9 -1452.9,-795.48 -2513.64,-795.48l-3406.09 0c-210.69,0 -381.46,170.81 -381.46,381.5l0 7614.57c436.48,305.21 919.48,548.4 1436.24,716.94l0 -1878.79 0 -369.95 0 -1959.57 0 -197.12 0 -2715.3c0,-210.69 170.81,-381.5 381.5,-381.5l1815.17 0c656.81,0 1177.79,138.63 1562.86,415.9 384.83,276.66 577.35,752.97 577.35,1428.91 0,675.91 -192.52,1150.37 -577.35,1422.07 -385.07,272.35 -906.05,408.53 -1562.86,408.53l-21.26 0 -421.54 0c-330.44,0 -598.28,267.88 -598.28,598.29l0 0c0,330.44 267.84,598.32 598.28,598.32l421.54 0 53.85 0 122.05 0c1070.27,0 1910.43,-255.73 2520.72,-767.14 610.01,-511.41 915.02,-1264.98 915.02,-2260.07 0,-976.03 -307.49,-1729.6 -922.1,-2260.11z"/>
  <path class="fil3" d="M26566.82 12938.22l-53.96 0c-95.37,0 -180.65,59.38 -213.74,148.83l-217.07 586.95 -231.85 678.03 2.94 0 -47.62 130.67 -0.03 0.07 0 0 -575.04 1577.18c-9.57,26.22 -46.67,26.22 -56.23,0l-561.86 -1541.22 0 0 -0.04 -0.04 -60.76 -166.66 4.4 0 -220.3 -651.29 -228.58 -600.51c-37.17,-97.54 -130.67,-162.02 -235.07,-162.02 -175.83,0 -297.39,175.83 -235.25,340.33l1223.11 3238.61c53.78,142.46 190.18,236.74 342.49,236.74 152.27,0 288.67,-94.28 342.49,-236.74l1235.15 -3270.54c56.3,-149.09 -53.85,-308.4 -213.18,-308.4z"/>
  <path class="fil3" d="M6926.29 12938.22l2189.57 0c130.09,0 235.53,105.44 235.53,235.53l0 0c0,130.09 -105.44,235.53 -235.53,235.53l-1630.79 0c-55.41,0 -100.37,44.92 -100.37,100.37l0 1010.11c0,55.42 44.96,100.38 100.37,100.38l1135.07 0c128.54,0 232.77,104.19 232.77,232.76l0 0c0,128.57 -104.23,232.77 -232.77,232.77l-1135.07 0c-55.41,0 -100.37,44.95 -100.37,100.4l0 1015.57c0,55.45 44.96,100.41 100.37,100.41l1633.55 0c128.57,0 232.77,104.19 232.77,232.76 0,128.58 -104.2,232.77 -232.77,232.77l-2192.33 0c-55.45,0 -100.37,-44.92 -100.37,-100.37l0 -3628.62c0,-55.42 44.92,-100.38 100.37,-100.38z"/>
  <path class="fil3" d="M10394.92 16792.28c-135.59,-24.34 -255.37,-54.17 -359.32,-89.5 -97.5,-33.16 -163.89,-123.14 -163.89,-226.17l0 0c0,-160.06 155.74,-272.23 308.19,-223.45 261.28,83.62 536.57,125.35 825.84,125.35 569.7,0 854.62,-191.53 854.62,-575.08 0,-131.62 -31.18,-237.34 -93.15,-317.65 -62.22,-80.32 -151.64,-150.78 -268.47,-210.95 -116.89,-60.41 -306.75,-143.34 -569.74,-249.31 -361.62,-146 -622.79,-306.85 -783.4,-482.07 -160.74,-175.27 -241.06,-396.27 -241.06,-662.84 0,-200.92 54.77,-379.02 164.35,-534.13 109.55,-155.35 262.96,-275.92 460.15,-361.73 197.3,-85.59 423.7,-128.75 679.39,-128.75 208.18,0 396.27,16.55 564.16,49.39 116.53,22.78 231.22,55.2 344.2,97.32 89.7,33.44 148.93,119.89 148.93,215.62l0 0c0,153.01 -148.02,261.93 -294.26,216.82 -221.57,-68.34 -444.92,-102.57 -669.93,-102.57 -262.95,0 -463.84,47.68 -602.65,142.64 -138.8,94.91 -208.21,229.9 -208.21,405.38 0,120.31 30.22,221.71 90.49,303.95 60.19,82.22 149.72,155.35 268.37,219.12 118.69,63.98 294.87,143.34 528.73,238.3 259.27,105.93 463.73,206.37 613.56,301.31 149.73,94.91 263.83,210.95 342.35,347.84 78.51,137.11 117.8,307.8 117.8,512.3 0,332.25 -118.76,589.95 -356.1,772.38 -237.44,182.67 -588.05,274.01 -1051.8,274.01 -219.23,0 -435.57,-19.17 -649.17,-57.54z"/>
  <path class="fil3" d="M13840.29 13409.28l-851.42 0c-130.09,0 -235.53,-105.43 -235.53,-235.52l0 0c0,-130.09 105.44,-235.53 235.53,-235.53l2470.73 0c130.05,0 235.53,105.44 235.53,235.53l0 0c0,130.09 -105.48,235.52 -235.53,235.52l-851.43 0c-56.26,0 -101.85,45.6 -101.85,101.82l0 2974.39c0,155.78 -126.3,282.08 -282.08,282.08l0 0c-155.81,0 -282.12,-126.3 -282.12,-282.08l0 -2974.39c0,-56.22 -45.56,-101.82 -101.82,-101.82z"/>
  <path class="fil3" d="M19867.69 13409.28l-836.33 0c-130.05,0 -235.52,-105.43 -235.52,-235.52l0 0c0,-130.09 105.47,-235.53 235.52,-235.53l2470.73 0c130.09,0 235.53,105.44 235.53,235.53l0 0c0,130.09 -105.44,235.52 -235.53,235.52l-836.32 0c-64.59,0 -116.96,52.36 -116.96,116.96l0 2959.25c0,155.78 -126.27,282.08 -282.08,282.08 -155.77,0 -282.08,-126.3 -282.08,-282.08l0 -2959.25c0,-64.6 -52.36,-116.96 -116.95,-116.96z"/>
  <path class="fil3" d="M22567.49 12938.22l0 0c155.78,0 282.08,126.31 282.08,282.09l0 3265.19c0,155.77 -126.3,282.08 -282.08,282.08 -155.81,0 -282.08,-126.31 -282.08,-282.08l0 -3265.19c0,-155.78 126.27,-282.09 282.08,-282.09z"/>
  <path class="fil3" d="M2451.53 13247.71c-239.25,-206.17 -565.26,-309.48 -977.94,-309.48l-1325.18 0c-81.98,0 -148.41,66.43 -148.41,148.41l0 3401.56c0,154.29 125.06,279.39 279.39,279.39 154.3,0 279.39,-125.1 279.39,-279.39l0 -891.07 0 -143.91 0 -762.39 0 -76.71 0 -1056.41c0,-81.99 66.46,-148.41 148.41,-148.41l706.2 0c255.55,0 458.24,53.92 608.07,161.8 149.72,107.63 224.62,292.93 224.62,555.91 0,262.99 -74.9,447.58 -224.62,553.3 -149.83,105.96 -352.52,158.93 -608.07,158.93l-8.26 0 -164 0c-128.57,0 -232.76,104.23 -232.76,232.77 0,128.57 104.19,232.76 232.76,232.76l164 0 20.94 0 47.51 0c416.39,0 743.26,-99.48 980.7,-298.45 237.34,-198.97 355.99,-492.14 355.99,-879.31 0,-379.72 -119.64,-672.9 -358.75,-879.3z"/>
  <path class="fil3" d="M5959.23 16409.69c-1.92,-6.03 -4.85,-12.75 -8.23,-19.83 -0.88,-1.81 -1.12,-3.22 -2.12,-5.14l-2.9 -5.31 -6.74 -12.29 -556.9 -1019.07c-37.34,-68.84 -3.65,-153.48 69.83,-180.51 205.39,-75.5 369.31,-193.23 491.79,-352.97 149.73,-195.36 224.52,-433.65 224.52,-714.85 0,-379.73 -109.55,-668.37 -328.67,-865.67 -219.09,-197.27 -533.27,-295.8 -942.23,-295.8l-1412.02 0c-70.36,0 -127.36,57.01 -127.36,127.37l0 3422.6c0,154.29 125.06,279.39 279.39,279.39l0 0c154.29,0 279.39,-125.1 279.39,-279.39l0 -1217.44 0 -268.66 0 -345.15 0 -332.86 0 -787.44c0,-70.36 57.03,-127.36 127.36,-127.36l760.09 0c251.97,0 448.28,52.97 588.9,158.93 140.58,105.93 210.94,283.12 210.94,531.48 0,226.53 -72.17,397.22 -216.36,512.29 -144.41,114.83 -260.05,172.36 -504.68,172.36l-3.01 0 0 0.42c-137.54,4.82 -247.65,117.52 -247.65,256.26l0 23.73c0,43.62 8.79,81.95 20.37,113.65 17.5,47.97 40.95,80.04 50.78,92.22 0,0.04 0.03,0.11 0.03,0.11l740.71 1370.49c0,0 0.07,0 0.11,0 47.58,89.24 141.53,150.04 249.73,150.04 156.28,0 282.98,-126.69 282.98,-282.97 0,-33.55 -6.17,-65.62 -16.87,-95.49 -0.38,-1.06 -0.77,-2.09 -1.16,-3.15z"/>
  <path class="fil3" d="M17947.9 15340.1l-622.66 -1707.92c-9.57,-26.21 -46.66,-26.21 -56.23,0l-622.69 1707.92 1301.59 0zm-650.79 -2401.86l0 0c152.31,0 288.71,94.27 342.49,236.73l1223.1 3238.62c62.14,164.49 -59.41,340.32 -235.24,340.32l0 0c-104.37,0 -197.9,-64.47 -235.03,-162.01l-299.91 -787.8 -1595.99 0 -296.19 800.97c-33.05,89.46 -118.36,148.83 -213.74,148.83l-53.96 0c-159.32,0 -269.47,-159.32 -213.17,-308.4l1235.15 -3270.54c53.81,-142.46 190.21,-236.73 342.49,-236.73z"/>
 </g>
</svg>
